<?xml version="1.0" encoding="UTF-8"?>
<svg id="Layer_1" data-name="Layer 1" xmlns="http://www.w3.org/2000/svg" viewBox="0 0 800 800">
  <defs>
    <style>
      .cls-1 {
        fill: #0f9939;
      }
    </style>
  </defs>
  <path class="cls-1" d="M712.31,303.08H87.69c-13.85,0-24.62,10.77-24.62,24.62v361.54c0,40,32.31,72.31,72.31,72.31h529.23c40,0,72.31-32.31,72.31-72.31v-361.54c0-13.85-10.77-24.62-24.62-24.62ZM280,640c0,13.85-10.77,24.62-24.62,24.62h-47.69c-13.85,0-24.62-10.77-24.62-24.62v-47.69c0-13.85,10.77-24.62,24.62-24.62h47.69c13.85,0,24.62,10.77,24.62,24.62v47.69ZM447.69,640c0,13.85-10.77,24.62-24.62,24.62h-47.69c-13.85,0-24.62-10.77-24.62-24.62v-47.69c0-13.85,10.77-24.62,24.62-24.62h47.69c13.85,0,24.62,10.77,24.62,24.62v47.69ZM447.69,472.31c0,13.85-10.77,24.62-24.62,24.62h-47.69c-13.85,0-24.62-10.77-24.62-24.62v-47.69c0-13.85,10.77-24.62,24.62-24.62h47.69c13.85,0,24.62,10.77,24.62,24.62v47.69ZM616.92,472.31c0,13.85-10.77,24.62-24.62,24.62h-47.69c-13.85,0-24.62-10.77-24.62-24.62v-47.69c0-13.85,10.77-24.62,24.62-24.62h47.69c13.85,0,24.62,10.77,24.62,24.62v47.69ZM664.62,110.77h-60v-24.62c0-26.15-21.54-47.69-47.69-47.69s-47.69,21.54-47.69,47.69v24.62h-216.92v-24.62c0-26.15-21.54-47.69-47.69-47.69s-47.69,21.54-47.69,47.69v24.62h-61.54c-40,0-72.31,32.31-72.31,72.31v24.62c0,13.85,10.77,24.62,24.62,24.62h626.15c13.85,0,24.62-10.77,24.62-24.62v-24.62c-1.54-40-33.85-72.31-73.85-72.31Z"/>
</svg>